<mxfile host="Electron" modified="2023-12-18T07:44:05.428Z" agent="Mozilla/5.0 (Macintosh; Intel Mac OS X 10_15_7) AppleWebKit/537.36 (KHTML, like Gecko) draw.io/22.1.2 Chrome/114.0.5735.289 Electron/25.9.4 Safari/537.36" etag="hOBx3TVoYq0VoMUhuffe" version="22.1.2" type="device">
  <diagram name="第 1 页" id="mSLYzeBuDDj1m1UnV1R8">
    <mxGraphModel dx="1026" dy="653" grid="1" gridSize="10" guides="1" tooltips="1" connect="1" arrows="1" fold="1" page="1" pageScale="1" pageWidth="827" pageHeight="1169" math="0" shadow="0">
      <root>
        <mxCell id="0" />
        <mxCell id="1" parent="0" />
        <mxCell id="T7CJaxuf-DzuXyD6vRHj-10" style="edgeStyle=orthogonalEdgeStyle;rounded=0;orthogonalLoop=1;jettySize=auto;html=1;entryX=0.5;entryY=0;entryDx=0;entryDy=0;strokeWidth=3;" parent="1" source="T7CJaxuf-DzuXyD6vRHj-1" target="T7CJaxuf-DzuXyD6vRHj-7" edge="1">
          <mxGeometry relative="1" as="geometry" />
        </mxCell>
        <mxCell id="T7CJaxuf-DzuXyD6vRHj-1" value="1" style="rounded=0;whiteSpace=wrap;html=1;fontSize=24;" parent="1" vertex="1">
          <mxGeometry x="200" y="80" width="80" height="80" as="geometry" />
        </mxCell>
        <mxCell id="T7CJaxuf-DzuXyD6vRHj-4" value="var x = 1" style="text;html=1;strokeColor=none;fillColor=none;align=center;verticalAlign=middle;whiteSpace=wrap;rounded=0;fontSize=24;" parent="1" vertex="1">
          <mxGeometry x="130" y="40" width="140" height="30" as="geometry" />
        </mxCell>
        <mxCell id="T7CJaxuf-DzuXyD6vRHj-5" value="x = 2" style="text;html=1;strokeColor=none;fillColor=none;align=center;verticalAlign=middle;whiteSpace=wrap;rounded=0;fontSize=24;" parent="1" vertex="1">
          <mxGeometry x="170" y="190" width="60" height="30" as="geometry" />
        </mxCell>
        <mxCell id="T7CJaxuf-DzuXyD6vRHj-6" value="x" style="rounded=0;whiteSpace=wrap;html=1;fontSize=24;" parent="1" vertex="1">
          <mxGeometry x="120" y="80" width="80" height="80" as="geometry" />
        </mxCell>
        <mxCell id="T7CJaxuf-DzuXyD6vRHj-7" value="&lt;font color=&quot;#ff0000&quot;&gt;2&lt;/font&gt;" style="rounded=0;whiteSpace=wrap;html=1;fontSize=24;" parent="1" vertex="1">
          <mxGeometry x="200" y="240" width="80" height="80" as="geometry" />
        </mxCell>
        <mxCell id="T7CJaxuf-DzuXyD6vRHj-8" value="x" style="rounded=0;whiteSpace=wrap;html=1;fontSize=24;" parent="1" vertex="1">
          <mxGeometry x="120" y="240" width="80" height="80" as="geometry" />
        </mxCell>
        <mxCell id="T7CJaxuf-DzuXyD6vRHj-13" style="edgeStyle=orthogonalEdgeStyle;rounded=0;orthogonalLoop=1;jettySize=auto;html=1;entryX=0.5;entryY=0;entryDx=0;entryDy=0;strokeWidth=3;" parent="1" source="T7CJaxuf-DzuXyD6vRHj-14" target="T7CJaxuf-DzuXyD6vRHj-18" edge="1">
          <mxGeometry relative="1" as="geometry" />
        </mxCell>
        <mxCell id="T7CJaxuf-DzuXyD6vRHj-14" value="" style="rounded=0;whiteSpace=wrap;html=1;fontSize=24;" parent="1" vertex="1">
          <mxGeometry x="480" y="80" width="80" height="80" as="geometry" />
        </mxCell>
        <mxCell id="T7CJaxuf-DzuXyD6vRHj-15" value="let ref = { val : 1 }" style="text;html=1;strokeColor=none;fillColor=none;align=center;verticalAlign=middle;whiteSpace=wrap;rounded=0;fontSize=24;" parent="1" vertex="1">
          <mxGeometry x="520" y="40" width="230" height="30" as="geometry" />
        </mxCell>
        <mxCell id="T7CJaxuf-DzuXyD6vRHj-16" value="ref.val = 10" style="text;html=1;strokeColor=none;fillColor=none;align=center;verticalAlign=middle;whiteSpace=wrap;rounded=0;fontSize=24;" parent="1" vertex="1">
          <mxGeometry x="540" y="190" width="130" height="30" as="geometry" />
        </mxCell>
        <mxCell id="T7CJaxuf-DzuXyD6vRHj-17" value="ref" style="rounded=0;whiteSpace=wrap;html=1;fontSize=24;" parent="1" vertex="1">
          <mxGeometry x="400" y="80" width="80" height="80" as="geometry" />
        </mxCell>
        <mxCell id="T7CJaxuf-DzuXyD6vRHj-18" value="" style="rounded=0;whiteSpace=wrap;html=1;fontSize=24;" parent="1" vertex="1">
          <mxGeometry x="480" y="240" width="80" height="80" as="geometry" />
        </mxCell>
        <mxCell id="T7CJaxuf-DzuXyD6vRHj-19" value="ref" style="rounded=0;whiteSpace=wrap;html=1;fontSize=24;" parent="1" vertex="1">
          <mxGeometry x="400" y="240" width="80" height="80" as="geometry" />
        </mxCell>
        <mxCell id="T7CJaxuf-DzuXyD6vRHj-20" value="1" style="rounded=0;whiteSpace=wrap;html=1;fontSize=24;" parent="1" vertex="1">
          <mxGeometry x="800" y="80" width="80" height="80" as="geometry" />
        </mxCell>
        <mxCell id="T7CJaxuf-DzuXyD6vRHj-21" value="" style="curved=1;endArrow=classic;html=1;rounded=0;strokeWidth=3;" parent="1" source="T7CJaxuf-DzuXyD6vRHj-14" target="T7CJaxuf-DzuXyD6vRHj-24" edge="1">
          <mxGeometry width="50" height="50" relative="1" as="geometry">
            <mxPoint x="650" y="160" as="sourcePoint" />
            <mxPoint x="700" y="110" as="targetPoint" />
            <Array as="points">
              <mxPoint x="630" y="150" />
              <mxPoint x="660" y="90" />
            </Array>
          </mxGeometry>
        </mxCell>
        <mxCell id="T7CJaxuf-DzuXyD6vRHj-22" value="&lt;font color=&quot;#ff0000&quot;&gt;10&lt;/font&gt;" style="rounded=0;whiteSpace=wrap;html=1;fontSize=24;" parent="1" vertex="1">
          <mxGeometry x="800" y="240" width="80" height="80" as="geometry" />
        </mxCell>
        <mxCell id="T7CJaxuf-DzuXyD6vRHj-23" value="" style="curved=1;endArrow=classic;html=1;rounded=0;strokeWidth=3;" parent="1" source="T7CJaxuf-DzuXyD6vRHj-18" target="T7CJaxuf-DzuXyD6vRHj-25" edge="1">
          <mxGeometry width="50" height="50" relative="1" as="geometry">
            <mxPoint x="560" y="290" as="sourcePoint" />
            <mxPoint x="800" y="280" as="targetPoint" />
            <Array as="points">
              <mxPoint x="610" y="310" />
              <mxPoint x="670" y="240" />
            </Array>
          </mxGeometry>
        </mxCell>
        <mxCell id="T7CJaxuf-DzuXyD6vRHj-24" value="val" style="rounded=0;whiteSpace=wrap;html=1;fontSize=24;" parent="1" vertex="1">
          <mxGeometry x="720" y="80" width="80" height="80" as="geometry" />
        </mxCell>
        <mxCell id="T7CJaxuf-DzuXyD6vRHj-25" value="val" style="rounded=0;whiteSpace=wrap;html=1;fontSize=24;" parent="1" vertex="1">
          <mxGeometry x="720" y="240" width="80" height="80" as="geometry" />
        </mxCell>
        <mxCell id="T7CJaxuf-DzuXyD6vRHj-26" style="edgeStyle=orthogonalEdgeStyle;rounded=0;orthogonalLoop=1;jettySize=auto;html=1;entryX=0.5;entryY=0;entryDx=0;entryDy=0;strokeWidth=3;" parent="1" source="T7CJaxuf-DzuXyD6vRHj-27" target="T7CJaxuf-DzuXyD6vRHj-31" edge="1">
          <mxGeometry relative="1" as="geometry" />
        </mxCell>
        <mxCell id="T7CJaxuf-DzuXyD6vRHj-27" value="" style="rounded=0;whiteSpace=wrap;html=1;fontSize=24;" parent="1" vertex="1">
          <mxGeometry x="1040" y="80" width="80" height="80" as="geometry" />
        </mxCell>
        <mxCell id="T7CJaxuf-DzuXyD6vRHj-28" value="mut ref = { val : 1 }" style="text;html=1;strokeColor=none;fillColor=none;align=center;verticalAlign=middle;whiteSpace=wrap;rounded=0;fontSize=24;" parent="1" vertex="1">
          <mxGeometry x="1080" y="40" width="230" height="30" as="geometry" />
        </mxCell>
        <mxCell id="T7CJaxuf-DzuXyD6vRHj-29" value="ref = { val : 10 }" style="text;html=1;strokeColor=none;fillColor=none;align=center;verticalAlign=middle;whiteSpace=wrap;rounded=0;fontSize=24;" parent="1" vertex="1">
          <mxGeometry x="1100" y="190" width="180" height="30" as="geometry" />
        </mxCell>
        <mxCell id="T7CJaxuf-DzuXyD6vRHj-30" value="ref" style="rounded=0;whiteSpace=wrap;html=1;fontSize=24;" parent="1" vertex="1">
          <mxGeometry x="960" y="80" width="80" height="80" as="geometry" />
        </mxCell>
        <mxCell id="T7CJaxuf-DzuXyD6vRHj-31" value="" style="rounded=0;whiteSpace=wrap;html=1;fontSize=24;" parent="1" vertex="1">
          <mxGeometry x="1040" y="240" width="80" height="80" as="geometry" />
        </mxCell>
        <mxCell id="T7CJaxuf-DzuXyD6vRHj-32" value="ref" style="rounded=0;whiteSpace=wrap;html=1;fontSize=24;" parent="1" vertex="1">
          <mxGeometry x="960" y="240" width="80" height="80" as="geometry" />
        </mxCell>
        <mxCell id="T7CJaxuf-DzuXyD6vRHj-33" value="1" style="rounded=0;whiteSpace=wrap;html=1;fontSize=24;" parent="1" vertex="1">
          <mxGeometry x="1360" y="80" width="80" height="80" as="geometry" />
        </mxCell>
        <mxCell id="T7CJaxuf-DzuXyD6vRHj-34" value="" style="curved=1;endArrow=classic;html=1;rounded=0;strokeWidth=3;" parent="1" source="T7CJaxuf-DzuXyD6vRHj-27" target="T7CJaxuf-DzuXyD6vRHj-37" edge="1">
          <mxGeometry width="50" height="50" relative="1" as="geometry">
            <mxPoint x="1210" y="160" as="sourcePoint" />
            <mxPoint x="1260" y="110" as="targetPoint" />
            <Array as="points">
              <mxPoint x="1190" y="150" />
              <mxPoint x="1220" y="90" />
            </Array>
          </mxGeometry>
        </mxCell>
        <mxCell id="T7CJaxuf-DzuXyD6vRHj-35" value="1" style="rounded=0;whiteSpace=wrap;html=1;fontSize=24;" parent="1" vertex="1">
          <mxGeometry x="1360" y="240" width="80" height="80" as="geometry" />
        </mxCell>
        <mxCell id="T7CJaxuf-DzuXyD6vRHj-36" value="" style="curved=1;endArrow=classic;html=1;rounded=0;strokeWidth=3;strokeColor=#FF0000;dashed=1;" parent="1" source="T7CJaxuf-DzuXyD6vRHj-31" target="T7CJaxuf-DzuXyD6vRHj-38" edge="1">
          <mxGeometry width="50" height="50" relative="1" as="geometry">
            <mxPoint x="1120" y="290" as="sourcePoint" />
            <mxPoint x="1360" y="280" as="targetPoint" />
            <Array as="points">
              <mxPoint x="1180" y="290" />
              <mxPoint x="1230" y="240" />
            </Array>
          </mxGeometry>
        </mxCell>
        <mxCell id="T7CJaxuf-DzuXyD6vRHj-37" value="val" style="rounded=0;whiteSpace=wrap;html=1;fontSize=24;" parent="1" vertex="1">
          <mxGeometry x="1280" y="80" width="80" height="80" as="geometry" />
        </mxCell>
        <mxCell id="T7CJaxuf-DzuXyD6vRHj-38" value="val" style="rounded=0;whiteSpace=wrap;html=1;fontSize=24;" parent="1" vertex="1">
          <mxGeometry x="1280" y="240" width="80" height="80" as="geometry" />
        </mxCell>
        <mxCell id="T7CJaxuf-DzuXyD6vRHj-39" value="&lt;font color=&quot;#ff0000&quot;&gt;10&lt;/font&gt;" style="rounded=0;whiteSpace=wrap;html=1;fontSize=24;strokeColor=#FF0000;" parent="1" vertex="1">
          <mxGeometry x="1360" y="360" width="80" height="80" as="geometry" />
        </mxCell>
        <mxCell id="T7CJaxuf-DzuXyD6vRHj-40" value="&lt;font color=&quot;#ff0000&quot;&gt;val&lt;/font&gt;" style="rounded=0;whiteSpace=wrap;html=1;fontSize=24;strokeColor=#FF0000;" parent="1" vertex="1">
          <mxGeometry x="1280" y="360" width="80" height="80" as="geometry" />
        </mxCell>
        <mxCell id="T7CJaxuf-DzuXyD6vRHj-41" value="" style="curved=1;endArrow=classic;html=1;rounded=0;strokeWidth=3;strokeColor=#FF0000;" parent="1" source="T7CJaxuf-DzuXyD6vRHj-31" target="T7CJaxuf-DzuXyD6vRHj-40" edge="1">
          <mxGeometry width="50" height="50" relative="1" as="geometry">
            <mxPoint x="1130" y="303" as="sourcePoint" />
            <mxPoint x="1290" y="272" as="targetPoint" />
            <Array as="points">
              <mxPoint x="1200" y="310" />
              <mxPoint x="1210" y="400" />
            </Array>
          </mxGeometry>
        </mxCell>
      </root>
    </mxGraphModel>
  </diagram>
</mxfile>
